<?xml version="1.0" standalone="no"?>
<!DOCTYPE svg PUBLIC "-//W3C//DTD SVG 20010904//EN"
 "http://www.w3.org/TR/2001/REC-SVG-20010904/DTD/svg10.dtd">
<svg version="1.0" xmlns="http://www.w3.org/2000/svg"
 width="164.000000pt" height="129.000000pt" viewBox="0 0 164.000000 129.000000"
 preserveAspectRatio="xMidYMid meet">
<metadata>
Created by potrace 1.15, written by Peter Selinger 2001-2017
</metadata>
<g transform="translate(0.000000,129.000000) scale(0.100000,-0.100000)"
fill="#000000" stroke="none">
<path d="M517 1073 c-4 -3 -7 -91 -7 -194 l0 -188 -27 -4 c-16 -2 9 -5 54 -6
94 -1 155 -12 268 -48 63 -20 106 -26 200 -28 l120 -4 -100 9 c-55 5 -125 16
-155 25 -159 45 -209 55 -272 55 l-68 0 0 185 0 185 80 0 80 0 0 -75 0 -75 35
0 34 0 4 -57 3 -58 2 68 2 67 -35 0 -35 0 0 75 0 75 -88 0 c-49 0 -92 -3 -95
-7z"/>
</g>
</svg>
